<svg width="403" height="171" viewBox="0 0 403 171" fill="none" xmlns="http://www.w3.org/2000/svg">
<path d="M56.4506 29.0349H29.5852V23.371H63.076V0H0V79.5529H29.5852V50.99H56.4506V29.0349ZM255.721 0H226.136V79.5529H255.721V0ZM318.797 56.1819H290.039V0H260.454V79.5529H318.797V56.1819ZM323.445 79.5529H353.03V50.7515L376.703 0H346.878L339.54 27.6189H339.306L330.663 0H299.658L323.445 50.7515V79.5529ZM304.824 82.8121H278.283C276.973 82.8121 275.916 83.8704 275.916 85.1721V112.707C275.916 113.725 275.085 114.555 274.063 114.555C273.042 114.555 272.21 113.725 272.21 112.707V85.1721C272.21 83.8654 271.149 82.8121 269.844 82.8121H244.179C242.869 82.8121 241.813 83.8704 241.813 85.1721V112.567C241.813 120.601 241.813 139.416 259.074 139.416C268.125 139.416 273.784 134.21 277.007 129.654L278.073 136.768C278.248 137.926 279.244 138.78 280.415 138.78H304.834C306.144 138.78 307.2 137.722 307.2 136.42V85.1721C307.2 83.8654 306.139 82.8121 304.834 82.8121H304.824ZM302.458 134.06H282.447L280.624 121.883C280.465 120.805 279.583 119.98 278.492 119.881C277.411 119.786 276.39 120.442 276.036 121.476C276.026 121.51 274.835 124.934 272.076 128.267C268.549 132.535 264.165 134.696 259.064 134.696C248.668 134.696 246.54 125.853 246.54 112.567V87.537H267.468V112.712C267.468 116.338 270.427 119.285 274.058 119.285C277.69 119.285 280.649 116.333 280.649 112.712V87.537H302.453V134.06H302.458ZM334.086 104.012C334.086 104.012 334.021 104.012 333.931 103.928C333.866 103.863 333.822 103.783 333.797 103.714C333.896 103.689 334.051 103.659 334.27 103.654C343.67 103.351 356.856 107.559 356.986 107.599C357.658 107.813 358.39 107.694 358.958 107.281C359.526 106.864 359.86 106.203 359.855 105.498L359.745 89.6187C359.74 88.7294 359.193 87.9345 358.366 87.6016C357.823 87.383 344.935 82.2855 331.246 82.7923C314 83.4381 307.743 94.9994 307.743 102.616C307.743 113.785 315.784 119.086 333.792 119.767C333.812 119.881 333.822 120.01 333.822 120.129C328.212 120.04 317.208 118.793 311.734 114.525C311.071 114.008 310.174 113.914 309.417 114.282C308.66 114.649 308.182 115.414 308.182 116.254V132.853C308.182 133.534 308.496 134.17 309.034 134.587C309.323 134.811 316.361 140.072 335.5 140.072C346.584 140.072 354.4 137.409 358.734 132.158C361.927 128.287 362.998 123.09 361.828 117.133C359.471 105.125 339.346 103.729 334.081 104.007L334.086 104.012ZM355.347 129.375C351.939 133.504 345.075 135.69 335.51 135.69C321.672 135.69 314.827 132.813 312.59 131.626V120.184C321.039 124.382 332.955 124.521 334.469 124.521C335.789 124.521 336.93 123.846 337.603 122.668C338.489 121.118 338.439 118.828 337.483 117.228C336.791 116.065 335.69 115.404 334.454 115.404C312.147 114.679 312.152 106.531 312.152 102.616C312.152 96.6986 317.283 87.701 331.426 87.1743C341.692 86.7918 351.79 89.9218 355.372 91.1689L355.451 102.576C350.838 101.294 341.608 99.0586 334.145 99.2772C331.455 99.3567 330.305 100.788 329.856 101.627C329.124 103.013 329.239 104.767 330.16 106.198C331.102 107.664 332.656 108.479 334.33 108.394C337.613 108.215 355.81 109.239 357.529 117.983C358.45 122.678 357.718 126.514 355.352 129.375H355.347ZM402.183 115.414C401.665 114.967 400.978 114.763 400.3 114.858C398.915 115.052 395.637 115.091 394.362 113.983C394.118 113.77 393.864 113.457 393.864 112.726V84.2828H400.42C401.73 84.2828 402.786 83.2245 402.786 81.9228V67.0079C402.786 65.7012 401.725 64.6479 400.42 64.6479H394.402V54.3933C394.402 53.0866 393.341 52.0333 392.036 52.0333H380.249C379.039 52.0333 378.028 52.9127 377.898 54.1151C377.843 54.5175 376.394 64.002 359.651 64.002C358.341 64.002 357.285 65.0603 357.285 66.362V81.9278C357.285 83.2344 358.346 84.2877 359.651 84.2877H363.223V117.357C363.223 123.438 365.26 128.958 368.961 132.903C372.961 137.166 378.63 139.421 385.345 139.421C397.874 139.421 400.968 138.512 401.456 138.328C402.382 137.985 403 137.101 403 136.112V117.198C403 116.512 402.701 115.866 402.183 115.414ZM398.263 134.15C396.38 134.388 392.569 134.691 385.345 134.691C374.785 134.691 367.96 127.885 367.96 117.352V81.9178C367.96 80.6112 366.899 79.5579 365.594 79.5579H362.022V68.6574C376.448 67.922 380.807 60.4894 382.088 56.7483H389.664V67.0029C389.664 68.3096 390.726 69.3629 392.031 69.3629H398.048V79.5529H391.493C390.183 79.5529 389.126 80.6112 389.126 81.9129V112.721C389.126 114.674 389.864 116.343 391.259 117.551C393.226 119.25 396.13 119.652 398.263 119.682V134.145V134.15ZM228.009 80.6509C219.341 79.6523 213.045 83.0506 209.792 90.4683C209.632 90.831 209.483 91.1242 209.353 91.3577L208.432 85.3311C208.257 84.1784 207.261 83.3239 206.09 83.3239H181.143C179.833 83.3239 178.777 84.3821 178.777 85.6838V85.9124C177.223 83.4381 175.265 81.1925 172.904 79.23C169.95 76.7756 166.472 74.8628 162.597 73.5114V48.5058L176.445 69.3976H177.865L191.714 48.5058V79.5479H221.419V0H192.66L177.277 22.427H177.043L161.645 0H132.887V73.0891C131.906 73.3475 130.924 73.6257 129.953 73.9337L114.226 0H71.7389L54.8166 79.5529H84.8751L85.8216 72.3538H100.143L101.09 79.5529H117.424C101.822 88.8983 90.1854 106.044 91.6948 131.03C92.5566 145.279 97.593 155.991 106.664 162.872C113.743 168.243 123.049 170.995 133.674 170.995C138.382 170.995 143.353 170.453 148.499 169.36C170.473 164.69 184.012 147.281 187.908 141.617H207.929C209.239 141.617 210.295 140.559 210.295 139.257V110.078C210.295 106.65 211.032 102.561 214.529 102.561C215.167 102.561 215.72 103.525 215.874 103.818C216.895 105.771 216.9 108.747 215.889 110.188C215.411 110.868 215.326 111.743 215.665 112.503C216.004 113.258 216.711 113.785 217.533 113.889C219.112 114.088 220.587 114.177 221.962 114.177C234.928 114.177 239.233 106.029 240.657 100.822C241.903 96.2763 240.961 90.7714 238.266 86.7967C235.88 83.2792 232.328 81.1527 228.004 80.6559L228.009 80.6509ZM88.9002 47.8053L92.452 19.0039H93.0448L96.8308 47.8053H88.9002ZM146.083 113.243L153.052 126.737C153.645 127.88 154.99 128.411 156.206 127.974C157.037 127.676 171.459 122.39 178.772 112.279V127.219C178.154 126.538 177.561 125.853 177.008 125.172C176.421 124.452 175.494 124.109 174.582 124.263C173.666 124.417 172.909 125.053 172.595 125.922C168.251 137.995 159.513 145.418 146.631 147.987C144.135 148.484 135.467 149.726 128.628 144.812C124.139 141.583 121.405 136.316 120.508 129.157C117.399 104.355 132.603 94.602 141.077 92.9127C147.747 91.5812 154.467 92.5848 157.421 95.3472C158.691 96.5396 159.189 98.0152 158.935 99.8634C157.959 106.993 147.856 109.552 147.757 109.577C146.995 109.76 146.357 110.287 146.028 111.002C145.7 111.718 145.719 112.543 146.078 113.243H146.083ZM147.423 164.347C132.145 167.597 118.774 165.619 109.773 158.793C101.947 152.856 97.588 143.411 96.8258 130.722C94.4945 92.1327 124.184 78.5394 142.093 76.5918C144.031 76.3831 145.919 76.2788 147.762 76.2788C156.559 76.2788 164.181 78.6586 169.606 83.1699C174.498 87.2439 177.322 92.7736 177.78 99.1679C178.667 111.549 162.422 119.752 156.544 122.3L152.026 113.551C156.131 111.917 163.005 108.086 164.036 100.559C164.515 97.0514 163.449 93.9561 160.948 91.616C155.827 86.8116 146.502 86.6079 140.075 87.8898C129.983 89.9019 111.835 101.255 115.412 129.798C116.493 138.428 119.93 144.881 125.624 148.975C134.147 155.101 144.628 153.621 147.637 153.02C160.958 150.367 170.418 143.167 175.813 131.596C178.622 134.612 181.626 137.369 183.464 138.994C179.688 144.345 167.075 160.174 147.423 164.352V164.347ZM236.089 99.5753C233.872 107.674 227.267 109.567 221.175 109.427C221.688 106.695 221.15 103.699 220.069 101.632C218.808 99.2176 216.786 97.8314 214.519 97.8314C212.412 97.8314 205.547 98.7158 205.547 110.073V136.892H188.825C188.73 136.778 188.62 136.669 188.506 136.569C188.466 136.535 186.234 134.657 183.499 132.048V88.0488H204.048L204.84 93.2357C204.875 93.4791 204.955 93.7176 205.064 93.9362C205.737 95.2777 207.206 96.8228 209.164 96.8228C209.194 96.8228 209.229 96.8228 209.259 96.8228C212.198 96.7483 213.647 93.4493 214.121 92.3662C216.557 86.8116 220.791 84.5809 227.456 85.3509C230.41 85.6888 232.727 87.07 234.336 89.4449C236.557 92.724 236.816 96.8973 236.079 99.5802L236.089 99.5753Z" fill="#FE4D00"/>
</svg>
