<?xml version="1.0" encoding="UTF-8"?>
<svg id="Layer_1" xmlns="http://www.w3.org/2000/svg" version="1.1" viewBox="0 0 600 350">
  <!-- Generator: Adobe Illustrator 29.6.1, SVG Export Plug-In . SVG Version: 2.1.1 Build 9)  -->
  <defs>
    <style>
      .st0 {
        fill: #fff;
      }
    </style>
  </defs>
  <path class="st0" d="M345.7,194.4c-5.8.3-12.1,2-15.8,6-5.2,2.7-7.9,8.2-7.9,14.2,0,9.8,7.8,17.6,17.4,17.6,5.9,0,11.3-3,14.5-7.9,4.9-3.3,7.8-8.5,7.8-14.4,0-9.6-6.5-16-16-15.4ZM344.2,225.7c-8.8,0-15.9-7.3-15.9-16.2,0-8.8,8.4-13.8,17-14.2,8.7-.4,14.9,5.6,14.9,14.4s-7.2,15.9-16,15.9ZM261.8,99.6c-14.2,1.1-27.9,1-42.1,0-.5,1.9-.8,2.9-1.3,4.9-3.2-.2-4.8-.4-8.1-.7-5.1,22.6-.3,47.2-6.4,69.1-8.8-26.8-23.6-50.3-29.5-78.4-15.2-1.8-30.3-3.4-45.5-4.3.6,1.9,1,3,1.9,5.2-4.6-.2-6.9-.3-11.3-.4,8,17.3,14.8,36.5,24.9,52.6,7,11,22,22.5,23,36.3.6,8.6-6,14.3-7.1,22.8-1.9,14.9,8.7,39.1,12.2,53.6,13.8-2.6,27.5-5.6,41.1-8.8,1-4,1.5-6.4,2.6-11.3,1-.2,1.5-.3,2.4-.5,5.5-25.4,13-45.2,22.2-68.9,9.3-23.7,11.2-47.5,20.9-71.4ZM217.6,238.2c-12.1,2.4-24.1,5-36.1,7.4-3.2-15.1-10.3-32.5-7.7-47.9,1.7-10,6.2-9.5,2.4-20.8-4-11.8-15.1-20.8-21.2-31.6-9.5-16.6-16.5-35.6-24-53.2,14.1.8,28.2,2.4,42.2,4.1,5.6,18.5,11.4,36.8,19.6,54.4,5.7,12.1,13.9,25.4,11.4,39.5,7.9-11.1,8.3-26.3,9.4-39.4,1.5-17.1,3-32.4,7.3-49.2,12.9,1,25.9,1.2,38.8-.2-9.6,23.4-11.2,46.7-20.4,69.9-9,23.1-16.5,42.3-21.8,67.1ZM321.3,175.2c-5.9-27.9,1.1-58.4,4.8-86.2-13.7,2.2-27.4,4.9-41.1,7.3,0,1.6-.1,2.5-.3,4.3-3.9.6-5.8.9-9.7,1.5-3.9,25.9-.6,51.1.1,77.2.6,20.3-2.2,41.2-2.2,61.7,14-1.2,27.9-1.8,41.9-2.1,0-3.3,0-5.1,0-8.7,1.8,0,2.8,0,4.6,0,0-18.5,5.4-37.8,1.7-54.9ZM283.4,229.8c0-19.2,2.8-37.9,1.1-56.6-2.2-25.5-1.5-50.5,2-75.8,12.6-2.2,25.3-4.6,37.9-6.6-4.1,26.9-10.6,57.2-5.2,84.5,3.5,17.5-1.2,34.4-1.2,53.4-11.6.2-23.1.6-34.6,1.1ZM427.6,127c-4.3-.1-6.4-.2-10.6-.4.3,12.4-3.1,24.4-2.5,36.7,4.4.3,6.5.4,10.9.7,4.9.4,8.5-.6,10.9-3.1,2.5-2.5,4.1-7.1,4.8-13.7.8-6.9-.6-11.8-3.2-15-2.6-3.2-6.1-5-10.3-5.2ZM428.1,152.9c-.7,5.2-1.6,8.3-2.3,9.9-.2,0-.4,0-.6,0-3.7-.3-5.5-.4-9.2-.6-.7-9.8,2.4-14.2,2.8-23.9.7,0,1,0,1.7,0,3,0,5.1.8,6.5,2.5.9,1.2,2.1,4.3,1.1,12.1ZM438.3,200.7c-6-.8-12.8,1.3-16.4,6.3-5.1,2.9-8,7.8-7.9,13.6.1,9.8,7.8,18.3,17.6,19.8,5.9.8,11.4-1.6,14.6-6.2,4.9-2.8,7.9-8,7.9-13.9,0-9.6-6-18.3-15.8-19.5ZM436.5,234.5c-8.9-1-16.1-9.3-16.1-18.1s8.4-15.4,17.4-14.3c9,1.1,14.8,9.1,14.8,18s-7.2,15.5-16.1,14.4ZM461.5,112.4c-9.4-8-20.6-14-32.8-16.5-14.9-3.3-29.8-6.6-44.9-9,0,1.9-.2,3-.4,5.3-3.4-.4-5.1-.6-8.5-.9-4,26.9-13,56.3-6.8,82.1,4.5,18.6-1,45.6-1,65.8,13.7.8,27.3,2.6,40.9,4.6v-8.9c1.9.3,2.8.4,4.7.7,0-12.4-.9-25.1,1-37.4,3,.4,4.5.6,7.4,1.1,13.7,1.8,28.4-1.3,39.5-9.7,3.1-2.3,6.1-5,8.4-8,9-8.4,10.8-23,11.3-34.1.7-14-8.5-26.1-18.9-35ZM478.8,147.4c-.5,10.8-2.4,25.5-11,33.3-9.4,8.5-23.5,10.9-36.1,9.2-6.6-.8-9.9-1.3-16.4-2-4.4,15.6-4,29.9-4,46-11.2-1.6-22.4-3-33.6-4.3,0-21.9,3.6-42.9-.6-63.6-4.5-22.1,5.7-55,8.1-77.4,14.7,2.4,29.1,5.6,43.7,8.7,11.9,2.4,22.9,8.1,32.1,15.9,10.1,8.7,18.8,20.5,18.1,34.1ZM250.9,194c-6,0-11.6,1.6-14.8,6.2-4.9,3.2-7.7,9.9-7.9,17.5-.3,9.6,5.3,21.9,16.9,19.9,6-1,11.6-4.9,15-10.9,5-4.2,8.1-10.6,8.1-17,0-10.3-7.5-15.7-17.2-15.8ZM250.2,229.4c-9,1-15.8-7.7-15.6-18.5.2-10.8,7.3-16,16.2-15.9,8.9,0,15.9,5.3,15.8,14.8,0,9.5-7.4,18.6-16.4,19.6Z"/>
</svg>