<?xml version="1.0" encoding="UTF-8"?>
<svg id="Layer_1" xmlns="http://www.w3.org/2000/svg" version="1.1" viewBox="0 0 600 600">
  <!-- Generator: Adobe Illustrator 29.6.1, SVG Export Plug-In . SVG Version: 2.1.1 Build 9)  -->
  <defs>
    <style>
      .st0 {
        fill: #fff;
      }
    </style>
  </defs>
  <g>
    <path class="st0" d="M234.7,173.7h-24.9l-23.1-73.4h-1.3v73.4h-25.1V37.6h27.6l20.6,63.4h1.3v-63.4h24.9v136.1Z"/>
    <path class="st0" d="M279,173.7h-28.5V37.6h28.5v136.1Z"/>
    <path class="st0" d="M369,173.7h-24.9l-23.1-73.4h-1.3v73.4h-25.1V37.6h27.6l20.6,63.4h1.3v-63.4h24.9v136.1Z"/>
    <path class="st0" d="M444.2,173.7h-59.5V37.6h59.1v22.2h-30.6v31.7h26v22.6h-26v37.2h31v22.4Z"/>
  </g>
  <g>
    <path class="st0" d="M154.7,278.1h-9.7v47.3h-28.5v-136.1h35.5c24.2,0,36,10.9,36,43.2s-13.3,45.7-33.3,45.7ZM149.9,211.5h-4.8v44.8h5c6.1,0,10-5.9,10-24s-3.6-20.8-10.2-20.8Z"/>
    <path class="st0" d="M270.9,291.5c0,25.6-17,36-36.2,36s-36.7-10.4-36.7-36v-67.9c0-26.7,17.4-36.7,36.7-36.7s36.2,9.7,36.2,36.7v67.9ZM242.3,217.2c0-5.6-3.2-8.8-7.7-8.8s-7.9,3-7.9,8.8v80.6c0,5.7,3.2,8.8,8.1,8.8s7.5-2.9,7.5-8.6v-80.8Z"/>
    <path class="st0" d="M314.1,325.4h-28.5v-136.1h28.5v136.1Z"/>
    <path class="st0" d="M404.1,325.4h-24.9l-23.1-73.4h-1.3v73.4h-25.1v-136.1h27.6l20.6,63.4h1.3v-63.4h24.9v136.1Z"/>
    <path class="st0" d="M489.2,211.5h-23.3v113.9h-28.7v-113.9h-23.1v-22.2h75v22.2Z"/>
  </g>
  <g>
    <path class="st0" d="M264.3,446.1c0,22.6-13.1,33-35.3,33h-37.4v-136.1h36.7c23.6,0,36,12,36,36v67.2ZM235.8,378.2c0-9.7-2.5-13.1-10.6-13.1h-5.2v91.7h5.2c7,0,10.6-2.9,10.6-10v-68.6Z"/>
    <path class="st0" d="M347.5,479h-29l-2.1-17h-20.6l-2,17h-24.4l22.6-136.1h32.6l22.9,136.1ZM313.2,439.8l-6.8-59.5h-1.1l-7.2,59.5h15Z"/>
    <path class="st0" d="M415.4,342.9l-24.7,83.5v52.6h-28.7v-52.8l-24.5-83.3h30.4l9.8,51.2h1.1l10.4-51.2h26.1Z"/>
  </g>
</svg>