<svg xmlns="http://www.w3.org/2000/svg" viewBox="0 0 100 100">
  <rect width="100" height="100" rx="22" fill="#FD4338"/>
  <g transform="translate(16 18) scale(0.108)">
    <path fill="#F3F5F4" d="M340.6,314.8c106.6-5.7,143.3-60.1,149.4-125,6.3-68.1-63.6-157.4-209.1-112.9-97.3,35.1-97.2,130.8-94.4,158.3,5.5,13.8,50.9-1.4,53.6-13.8-4.2-41.5,5.2-90.2,54.7-106.7,52.5-17.5,141.3-16.3,139.4,71.7-1.7,80.3-70.1,86.7-100,84,9-44.2,16.3-88,32.6-119.9,1.9-3.7-5.6-12.6-12.8-6-72.2,66.2-68,217.9-144,237.2-10.3,22,41.9,48.4,41.9,48.4,38.1-22.9,57.3-63.1,70-107.8,32.8,18,25.7,105.6,96.1,121.1,19.4,3.3,54.1-14.9,52.2-52.2-68.1,23.2-73-53.5-129.7-76.5Z"/>
  </g>
</svg>
