<?xml version="1.0" encoding="UTF-8"?>
<svg id="Layer_1" xmlns="http://www.w3.org/2000/svg" version="1.1" viewBox="0 0 393 393">
  <!-- Generator: Adobe Illustrator 29.6.1, SVG Export Plug-In . SVG Version: 2.1.1 Build 9)  -->
  <defs>
    <style>
      .st0 {
        fill: #231f20;
      }

      .st1 {
        fill: #f15632;
      }
    </style>
  </defs>
  <path class="st1" d="M16.5,305.7c99.8-35.7,327.4-31.5,327.4-31.5,15,3.3,13.3,23.3-1.7,21.6-59.8-8.3-247.8-.6-321.2,21-14.7,4.3-13.4-9.5-4.5-11.1Z"/>
  <path class="st0" d="M219.3,84.3c-8.3,63.1-21.2,150.3-26.2,170.2s18.3,16.6,19.9,0c1.7-16.6,27.6-133.1,31.2-161.9,1.7-13.3-21.6-21.6-24.9-8.3ZM57.2,185.7c28.5-18.1,60.3-49.3,64-71.5,4.3-25.5-27.8-36.5-61.1-21.6-4.8-9-20.9-12.6-23.6-1.7-8.3,63.1-26.6,174.5-31.6,194.4-5,19.9,18.3,16.6,19.9,0,.8-7.9,8.3-43.9,16.3-82.6,10.4,19.1,32.9,59.1,37,70.1,5,13.3,21.6,10,18.3-1.7-2.8-9.9-30.8-68-39.3-85.5ZM57.8,120.8c16.7-11.7,46.5-19.2,45.2-10-1.4,10.1-30.4,39-53.3,50.8,3.1-15.2,5.9-29.4,8.1-40.8ZM172,253.5c-51,14.6-63.3-12.2-62.3-27.9,3-49.3,55.1-94.3,66.5-69.8,3.7,8-29.7,36.6-55.5,59-11.9,13.1-.9,27.5,13.1,16.7,14-10.8,83.8-67.2,63.4-91.9-37.2-45.2-111.2,28-106.3,82,4.9,54.1,44.2,56.5,83.6,49.2,18.4-3.4,14.7-22.1-2.5-17.2ZM367.6,113c-1.6,5.6-11.2,32.2-21.5,61.3-5.8-23.5-18.4-65.6-19.7-73.3-1.7-10-19.9-6.6-18.3,5,11.6,26.6,27.5,84.6,29.2,92.9,0,0,0,.1,0,.2-8.1,23.3-15.4,44.8-17.9,55.1-3.3,13.3,10,16.6,15,6.6,5-10,34.9-94.7,56.5-146.2,1.7-11.6-19.9-13.3-23.3-1.7ZM310.7,182.3c-2.4-.3-5.8-.3-9.9.1-2.1-23.9-4.3-48.9-5.9-65.2.3-1.1.6-2.2.8-3.1,3.3-13.3-10-16.6-15-6.6-3.3,6.5-17.3,45.2-32.6,85.6-3.1.8-6.1,1.7-9,2.5-10,3.3-15,21.6-3.3,18.3,1.3-.4,2.9-.8,4.9-1.4-5.7,14.7-11.3,28.9-16.5,41.3-1.7,11.6,19.9,13.3,23.3,1.7,1.4-4.8,8.7-25.3,17.3-49.5,6.7-1.8,13.6-3.6,20.1-5.2.4,22.3.9,44.5,2.4,53.1,3.3,18.3,23.3,10,19.9-8.3-1.4-7.5-3.3-26.7-5.3-48.8,2-.4,3.8-.8,5.3-1,10-1.7,15-11.6,3.3-13.3ZM271.4,187.5c4.2-11.9,8.4-23.9,12.1-34.9.6,7.8.9,19.4,1.2,32.2-4.3.8-8.8,1.7-13.3,2.7Z"/>
</svg>